<svg width="35.082" height="37.748" xmlns="http://www.w3.org/2000/svg">

 <g>
  <title>background</title>
  <rect fill="none" id="canvas_background" height="402" width="582" y="-1" x="-1"/>
 </g>
 <g>
  <title>Layer 1</title>
  <path fill="#000000" id="svg_1" d="m14.617,33.46a1.715,1.715 0 0 0 -2.026,-1.687c-2.246,0.412 -5.081,0.474 -5.835,-1.643a9.79,9.79 0 0 0 -3.151,-4.143a2.059,2.059 0 0 1 -0.286,-0.188a1.715,1.715 0 0 0 -1.6,-1.107l-0.004,0a1.715,1.715 0 0 0 -1.715,1.711c-0.007,1.4 1.391,2.295 1.958,2.6a7.618,7.618 0 0 1 1.585,2.332c0.625,1.756 2.441,4.419 7.66,4.076c0,0.06 0,0.117 0,0.169l0.008,0.459a1.715,1.715 0 1 0 3.431,0l-0.008,-0.546c-0.005,-0.331 -0.017,-0.802 -0.017,-2.033zm18.298,-25.947c0.054,-0.214 0.108,-0.452 0.155,-0.72a10.769,10.769 0 0 0 -0.7,-5.649a1.719,1.719 0 0 0 -1.056,-1c-0.611,-0.201 -2.863,-0.606 -7.178,2.149a23.791,23.791 0 0 0 -10.9,0c-4.293,-2.715 -6.536,-2.347 -7.141,-2.152a1.711,1.711 0 0 0 -1.083,1a10.807,10.807 0 0 0 -0.692,5.762c0.042,0.219 0.087,0.422 0.134,0.608a10.754,10.754 0 0 0 -2.153,6.565a14.446,14.446 0 0 0 0.073,1.581c0.573,7.9 5.719,10.265 9.3,11.08c-0.075,0.214 -0.142,0.444 -0.2,0.687a1.716,1.716 0 1 0 3.332,0.821a2.879,2.879 0 0 1 0.8,-1.506a1.714,1.714 0 0 0 -0.936,-2.994c-5.925,-0.677 -8.5,-3.091 -8.884,-8.4a11.34,11.34 0 0 1 -0.058,-1.266a7.3,7.3 0 0 1 1.581,-4.656a5.184,5.184 0 0 1 0.336,-0.4a1.715,1.715 0 0 0 0.322,-1.757a5.811,5.811 0 0 1 -0.266,-0.953a7.022,7.022 0 0 1 0.135,-2.771a12.938,12.938 0 0 1 4.143,2.024a1.73,1.73 0 0 0 1.42,0.228a20.2,20.2 0 0 1 10.589,0a1.725,1.725 0 0 0 1.425,-0.236a12.989,12.989 0 0 1 4.126,-2.042a6.93,6.93 0 0 1 0.15,2.707a5.5,5.5 0 0 1 -0.29,1.042a1.715,1.715 0 0 0 0.322,1.757c0.132,0.149 0.265,0.31 0.384,0.461a7.07,7.07 0 0 1 1.547,4.59a12.073,12.073 0 0 1 -0.064,1.333c-0.378,5.242 -2.96,7.657 -8.913,8.336a1.715,1.715 0 0 0 -0.936,3a2.8,2.8 0 0 1 0.8,1.558a5.25,5.25 0 0 1 0.158,1.405l0,4c-0.017,1.111 -0.017,1.943 -0.017,2.325a1.715,1.715 0 1 0 3.431,0c0,-0.372 0,-1.188 0.017,-2.3l0,-4.027a8.374,8.374 0 0 0 -0.266,-2.25a7.3,7.3 0 0 0 -0.2,-0.714a11.171,11.171 0 0 0 9.341,-11.019a14.917,14.917 0 0 0 0.079,-1.645a10.516,10.516 0 0 0 -2.167,-6.562z" class="a"/>
 </g>
</svg>