<svg width="31.49" height="30.178" xmlns="http://www.w3.org/2000/svg">

 <g>
  <title>background</title>
  <rect fill="none" id="canvas_background" height="402" width="582" y="-1" x="-1"/>
 </g>
 <g>
  <title fill="#000000">Layer 1</title>
  <path fill="#000000" id="svg_1" d="m6.534,3.28a3.254,3.254 0 1 1 -3.254,-3.28a3.267,3.267 0 0 1 3.254,3.28zm0.026,5.9l-6.56,0l0,20.998l6.561,0l-0.001,-20.998zm10.473,0l-6.518,0l0,20.998l6.52,0l0,-11.02c0,-6.128 7.911,-6.629 7.911,0l0,11.02l6.544,0l0,-13.293c0,-10.339 -11.707,-9.963 -14.457,-4.873l0,-2.827l0,-0.005z" class="a"/>
 </g>
</svg>