<svg width="38.889" height="38.889" xmlns="http://www.w3.org/2000/svg">

 <g>
  <title>background</title>
  <rect fill="none" id="canvas_background" height="402" width="582" y="-1" x="-1"/>
 </g>
 <g>
  <title>Layer 1</title>
  <path fill="#000000" id="svg_2" d="m38.889,24.305l0,14.584l-38.889,0l0,-14.584l4.861,0l0,9.722l29.167,0l0,-9.722l4.861,0zm-36.461,2.433l29.172,0l0,4.862l-24.306,0l-4.866,-4.862zm0.571,-5.262l1.052,-4.746l23.73,5.258l3.819,4.746l-28.601,-5.258zm2.754,-9.758l2.056,-4.4l26.891,10.265l-2.056,4.4l-26.891,-10.265zm27.043,2.008l1.904,3.857l-19.279,-14.793l2.138,-2.79l2.21,0l13.027,13.726z" class="a"/>
 </g>
</svg>